<svg width="24" height="24" viewBox="0 0 24 24" fill="none" xmlns="http://www.w3.org/2000/svg">
  <path d="M12 2C6.48 2 2 6.48 2 12C2 17.52 6.48 22 12 22C17.52 22 22 17.52 22 12C22 6.48 17.52 2 12 2ZM13.41 18.09V20H10.74V18.07C9.03 17.71 7.58 16.61 7.47 14.67H9.43C9.53 15.82 10.31 16.49 12.08 16.49C13.98 16.49 14.54 15.72 14.54 14.91C14.54 14.21 14.15 13.59 12.08 13.14C9.65 12.58 8.14 11.74 8.14 9.91C8.14 8.33 9.43 7.14 11.21 6.79V5H13.89V6.81C15.48 7.21 16.63 8.34 16.73 10.04H14.77C14.72 8.94 14.05 8.31 12.08 8.31C10.31 8.31 9.5 8.87 9.5 9.88C9.5 10.69 10.04 11.12 12.08 11.57C14.12 12.03 15.9 12.72 15.9 14.91C15.9 16.58 14.69 17.73 13.41 18.09Z" fill="currentColor"/>
</svg>