<svg width="24" height="24" viewBox="0 0 24 24" fill="none" xmlns="http://www.w3.org/2000/svg">
  <path d="M21 18V19C21 20.1 20.1 21 19 21H5C3.9 21 3 20.1 3 19V18C3 18.55 3.45 19 4 19H20C20.55 19 21 18.55 21 18ZM20 14H4C3.45 14 3 14.45 3 15V16C3 16.55 3.45 17 4 17H20C20.55 17 21 16.55 21 16V15C21 14.45 20.55 14 20 14ZM20 10H4C3.45 10 3 10.45 3 11V12C3 12.55 3.45 13 4 13H20C20.55 13 21 12.55 21 12V11C21 10.45 20.55 10 20 10ZM7 7V4C7 3.45 7.45 3 8 3H16C16.55 3 17 3.45 17 4V7C17 7.55 16.55 8 16 8H8C7.45 8 7 7.55 7 7Z" fill="currentColor"/>
</svg>