<svg width="24" height="24" viewBox="0 0 24 24" fill="none" xmlns="http://www.w3.org/2000/svg">
  <!-- 简洁版微信图标 -->
  <path d="M15.85 8.14C15.87 8.14 15.9 8.14 15.92 8.14C16.16 5.66 13.84 3.39 10.67 3C7.21 2.57 4.07 4.66 3.68 7.8C3.31 10.78 5.44 13.35 8.32 13.82L8.66 13.88L8.5 14.89L9.42 14.4C9.42 14.4 10.18 13.96 10.34 13.88C10.38 13.87 10.43 13.86 10.48 13.86C10.56 13.87 10.65 13.88 10.74 13.88C11.01 13.91 11.29 13.91 11.57 13.89C11.48 13.55 11.43 13.19 11.43 12.82C11.43 10.14 13.42 7.93 15.85 8.14ZM12.73 6.53C13.17 6.53 13.53 6.89 13.53 7.33C13.53 7.77 13.17 8.13 12.73 8.13C12.29 8.13 11.93 7.77 11.93 7.33C11.93 6.89 12.29 6.53 12.73 6.53ZM8.67 8.13C8.23 8.13 7.87 7.77 7.87 7.33C7.87 6.89 8.23 6.53 8.67 6.53C9.11 6.53 9.47 6.89 9.47 7.33C9.47 7.77 9.11 8.13 8.67 8.13Z" fill="currentColor"/>
  <path d="M20.32 12.72C20.32 10.17 18.07 8.07 15.27 8.07C12.47 8.07 10.22 10.17 10.22 12.72C10.22 15.27 12.47 17.37 15.27 17.37C15.73 17.37 16.17 17.32 16.6 17.23L18.5 18.4L18.11 16.74C19.45 15.96 20.32 14.46 20.32 12.72ZM13.6 11.92C13.21 11.92 12.9 11.61 12.9 11.22C12.9 10.83 13.21 10.52 13.6 10.52C13.99 10.52 14.3 10.83 14.3 11.22C14.3 11.61 13.99 11.92 13.6 11.92ZM16.93 11.92C16.54 11.92 16.23 11.61 16.23 11.22C16.23 10.83 16.54 10.52 16.93 10.52C17.32 10.52 17.63 10.83 17.63 11.22C17.63 11.61 17.32 11.92 16.93 11.92Z" fill="currentColor"/>
</svg>